<?xml version="1.0" encoding="UTF-8"?>
<!DOCTYPE svg PUBLIC "-//W3C//DTD SVG 1.1//EN" "http://www.w3.org/Graphics/SVG/1.1/DTD/svg11.dtd">
<svg xmlns="http://www.w3.org/2000/svg" version="1.1" width="207px" height="100px" style="shape-rendering:geometricPrecision; text-rendering:geometricPrecision; image-rendering:optimizeQuality; fill-rule:evenodd; clip-rule:evenodd" xmlns:xlink="http://www.w3.org/1999/xlink">
<g><path style="opacity:0.93" fill="#f9fafa" d="M 106.5,-0.5 C 114.833,-0.5 123.167,-0.5 131.5,-0.5C 130.929,2.47694 129.929,5.31028 128.5,8C 137.34,9.11274 146.34,9.27941 155.5,8.5C 160.5,8.66667 165.5,8.83333 170.5,9C 171.766,9.30945 172.933,9.80945 174,10.5C 184.577,8.53695 195.41,7.87028 206.5,8.5C 206.5,9.16667 206.5,9.83333 206.5,10.5C 201.871,19.86 197.704,29.5267 194,39.5C 191.26,40.2822 188.426,40.7822 185.5,41C 188.032,41.6189 190.365,42.6189 192.5,44C 187.704,55.7623 183.037,67.5957 178.5,79.5C 118.837,80.5 59.1704,80.8333 -0.5,80.5C -0.5,79.8333 -0.5,79.1667 -0.5,78.5C 8.00204,57.679 16.3354,36.679 24.5,15.5C 34.5,15.1667 44.5,14.8333 54.5,14.5C 64.8945,14.5127 75.0612,15.1794 85,16.5C 89.1777,6.85237 96.3443,1.1857 106.5,-0.5 Z M 31.5,32.5 C 31.472,30.4176 32.1387,28.5843 33.5,27C 49.4965,26.5001 65.4965,26.3334 81.5,26.5C 81.0713,30.4587 82.0713,33.9587 84.5,37C 79.5111,37.4993 74.5111,37.6659 69.5,37.5C 70.0708,34.5231 71.0708,31.6897 72.5,29C 67.1667,28.3333 61.8333,28.3333 56.5,29C 54.4774,32.7299 52.6441,36.5633 51,40.5C 50.3583,36.5092 49.8583,32.5092 49.5,28.5C 44.1254,28.1718 38.7921,28.5052 33.5,29.5C 33.0576,30.7387 32.3909,31.7387 31.5,32.5 Z M 160.5,26.5 C 162.857,26.3367 165.19,26.5034 167.5,27C 164.816,29.1449 162.483,28.9783 160.5,26.5 Z M 168.5,39.5 C 172.472,40.1082 176.472,40.6082 180.5,41C 178.947,43.6549 177.78,46.4883 177,49.5C 175.692,47.3586 174.192,45.3586 172.5,43.5C 170.544,44.5481 168.544,45.0481 166.5,45C 167.464,43.2745 168.131,41.4412 168.5,39.5 Z M 150.5,41.5 C 151.077,40.2267 151.743,40.2267 152.5,41.5C 152.03,42.463 151.363,42.463 150.5,41.5 Z M 173.5,52.5 C 175.62,53.85 175.453,55.5167 173,57.5C 172.626,56.5838 172.126,55.7504 171.5,55C 172.381,54.2917 173.047,53.4584 173.5,52.5 Z M 37.5,57.5 C 39.2358,60.8409 40.2358,64.5075 40.5,68.5C 38.1432,68.6633 35.8098,68.4966 33.5,68C 35.3296,64.6763 36.6629,61.1763 37.5,57.5 Z M 157.5,65.5 C 159.332,66.1405 159.665,67.1405 158.5,68.5C 157.614,67.675 157.281,66.675 157.5,65.5 Z M 56.5,66.5 C 57.2891,66.7828 57.9558,67.2828 58.5,68C 57.184,68.5281 56.5173,68.0281 56.5,66.5 Z"/></g>
<g><path style="opacity:1" fill="#ffa973" d="M 105.5,4.5 C 111.979,3.50929 118.646,3.17596 125.5,3.5C 125.737,4.79105 125.404,5.79105 124.5,6.5C 118.588,4.54372 112.255,3.87705 105.5,4.5 Z"/></g>
<g><path style="opacity:1" fill="#ff7b2a" d="M 105.5,4.5 C 112.255,3.87705 118.588,4.54372 124.5,6.5C 124.196,7.14987 123.863,7.81654 123.5,8.5C 116.419,9.07118 109.419,9.90452 102.5,11C 96.5099,15.8059 94.0099,21.9725 95,29.5C 99.0785,30.6295 103.245,30.7961 107.5,30C 108.308,27.9124 109.308,25.9124 110.5,24C 107.518,23.502 104.518,23.3354 101.5,23.5C 101.472,21.4176 102.139,19.5843 103.5,18C 108.864,17.1705 114.198,17.3372 119.5,18.5C 117.362,24.2473 115.029,29.914 112.5,35.5C 104.416,36.9344 96.4162,36.7677 88.5,35C 86.4076,33.1473 85.4076,30.8139 85.5,28C 87.1724,15.7735 93.8391,7.94016 105.5,4.5 Z"/></g>
<g><path style="opacity:1" fill="#ff7b2a" d="M 127.5,12.5 C 129.604,12.2011 131.604,12.5344 133.5,13.5C 130.338,19.1471 128.338,25.1471 127.5,31.5C 130.187,31.6641 132.854,31.4974 135.5,31C 138.191,25.2658 140.691,19.4325 143,13.5C 145.139,12.2309 147.305,12.2309 149.5,13.5C 146.203,21.0868 143.203,28.7535 140.5,36.5C 134.107,36.7929 127.773,36.4596 121.5,35.5C 120.348,32.8938 120.182,30.2272 121,27.5C 123.181,22.4741 125.348,17.4741 127.5,12.5 Z"/></g>
<g><path style="opacity:1" fill="#ff7c2b" d="M 155.5,12.5 C 160.565,12.219 165.565,12.5524 170.5,13.5C 171.675,16.4707 171.342,19.304 169.5,22C 167.5,22.6667 165.5,22.6667 163.5,22C 164.38,20.6439 164.714,19.1439 164.5,17.5C 162.833,17.5 161.167,17.5 159.5,17.5C 157.741,23.6909 155.408,29.6909 152.5,35.5C 150.604,36.4656 148.604,36.7989 146.5,36.5C 149.493,28.5105 152.493,20.5105 155.5,12.5 Z"/></g>
<g><path style="opacity:1" fill="#ff7b2a" d="M 177.5,12.5 C 179.5,12.5 181.5,12.5 183.5,12.5C 181.209,18.7466 179.209,25.08 177.5,31.5C 180.572,31.8174 183.572,31.4841 186.5,30.5C 188.638,24.7527 190.971,19.086 193.5,13.5C 195.765,12.3526 198.098,12.1859 200.5,13C 196.948,20.3199 193.781,27.8199 191,35.5C 184.916,36.642 178.749,36.8087 172.5,36C 170.556,33.8471 170.056,31.3471 171,28.5C 173.456,23.2588 175.623,17.9255 177.5,12.5 Z"/></g>
<g><path style="opacity:1" fill="#1da6ed" d="M 11.5,71.5 C 10.9569,71.56 10.6236,71.8933 10.5,72.5C 64.6651,73.8313 118.665,73.8313 172.5,72.5C 176.034,63.2308 179.367,53.8975 182.5,44.5C 184.635,44.147 185.968,44.9803 186.5,47C 182.931,56.5392 179.265,66.0392 175.5,75.5C 118.833,76.8333 62.1667,76.8333 5.5,75.5C 12.74,56.6105 20.0733,37.7771 27.5,19C 45.1635,18.5001 62.8302,18.3334 80.5,18.5C 80.5,19.8333 80.5,21.1667 80.5,22.5C 63.83,22.3334 47.1633,22.5001 30.5,23C 23.8707,39.0552 17.5374,55.2218 11.5,71.5 Z M 173.5,52.5 C 173.047,53.4584 172.381,54.2917 171.5,55C 172.126,55.7504 172.626,56.5838 173,57.5C 175.453,55.5167 175.62,53.85 173.5,52.5 Z M 37.5,57.5 C 36.6629,61.1763 35.3296,64.6763 33.5,68C 35.8098,68.4966 38.1432,68.6633 40.5,68.5C 40.2358,64.5075 39.2358,60.8409 37.5,57.5 Z M 157.5,65.5 C 157.281,66.675 157.614,67.675 158.5,68.5C 159.665,67.1405 159.332,66.1405 157.5,65.5 Z M 56.5,66.5 C 56.5173,68.0281 57.184,68.5281 58.5,68C 57.9558,67.2828 57.2891,66.7828 56.5,66.5 Z"/></g>
<g><path style="opacity:1" fill="#1fa6ee" d="M 36.5,32.5 C 39.7766,32.2161 42.9433,32.5495 46,33.5C 47.0115,40.5706 48.3449,47.5706 50,54.5C 52.8333,47.5 55.6667,40.5 58.5,33.5C 60.7427,32.5258 63.076,32.1924 65.5,32.5C 61.8569,43.5933 57.5235,54.4266 52.5,65C 49.7728,65.8184 47.1062,65.6517 44.5,64.5C 43.0017,56.8453 41.5017,49.1787 40,41.5C 36.8333,49.1667 33.6667,56.8333 30.5,64.5C 28.2573,65.4742 25.924,65.8076 23.5,65.5C 27.5524,54.3943 31.8858,43.3943 36.5,32.5 Z"/></g>
<g><path style="opacity:1" fill="#22a7ee" d="M 160.5,32.5 C 162.5,32.5 164.5,32.5 166.5,32.5C 164.603,38.8 162.27,44.9667 159.5,51C 159.833,51.5 160.167,52 160.5,52.5C 164.768,50.4675 169.101,48.9675 173.5,48C 170.81,49.6977 168.477,51.6977 166.5,54C 168.03,57.5607 169.697,61.0607 171.5,64.5C 168.894,65.6517 166.227,65.8184 163.5,65C 161.793,61.7515 159.96,58.5849 158,55.5C 156.496,58.6841 154.996,61.8507 153.5,65C 151.527,65.4955 149.527,65.6621 147.5,65.5C 151.552,54.3943 155.886,43.3943 160.5,32.5 Z"/></g>
<g><path style="opacity:1" fill="#22a7ee" d="M 68.5,41.5 C 74.8421,41.3338 81.1754,41.5005 87.5,42C 90.0867,43.5251 90.9201,45.6917 90,48.5C 87.7356,53.7932 85.5689,59.1266 83.5,64.5C 76.1893,65.6646 68.856,65.8313 61.5,65C 59.0987,59.4196 60.7653,55.0862 66.5,52C 71.8229,51.5006 77.1563,51.334 82.5,51.5C 82.7135,49.8561 82.3802,48.3561 81.5,47C 76.7982,46.8283 72.1315,46.3283 67.5,45.5C 68.2458,44.2638 68.5792,42.9305 68.5,41.5 Z"/></g>
<g><path style="opacity:1" fill="#1da6ee" d="M 98.5,41.5 C 104.176,41.3339 109.843,41.5006 115.5,42C 118.379,43.6658 119.212,46.1658 118,49.5C 115.804,54.4203 113.804,59.4203 112,64.5C 109.959,65.4231 107.792,65.7564 105.5,65.5C 107.5,59.5 109.5,53.5 111.5,47.5C 108.428,47.1826 105.428,47.5159 102.5,48.5C 100.167,53.8333 97.8333,59.1667 95.5,64.5C 93.604,65.4656 91.604,65.7989 89.5,65.5C 91.9402,57.2869 94.9402,49.2869 98.5,41.5 Z"/></g>
<g><path style="opacity:1" fill="#22a7ee" d="M 127.5,41.5 C 133.509,41.3338 139.509,41.5005 145.5,42C 148.947,44.6362 149.447,47.8029 147,51.5C 145.069,55.7925 143.236,60.1259 141.5,64.5C 134.189,65.6646 126.856,65.8313 119.5,65C 118.196,64.196 117.529,63.0293 117.5,61.5C 118.653,57.0098 121.32,53.8431 125.5,52C 130.489,51.5007 135.489,51.3341 140.5,51.5C 140.714,49.8561 140.38,48.3561 139.5,47C 134.798,46.8283 130.132,46.3283 125.5,45.5C 126.18,44.1401 126.847,42.8068 127.5,41.5 Z"/></g>
<g><path style="opacity:1" fill="#fbfdfe" d="M 68.5,56.5 C 72.226,56.1774 75.8927,56.5108 79.5,57.5C 79.1667,58.1667 78.8333,58.8333 78.5,59.5C 74.8927,60.4892 71.226,60.8226 67.5,60.5C 67.4326,59.0413 67.7659,57.7079 68.5,56.5 Z"/></g>
<g><path style="opacity:1" fill="#fbfdfe" d="M 126.5,56.5 C 130.226,56.1774 133.893,56.5108 137.5,57.5C 137.167,58.1667 136.833,58.8333 136.5,59.5C 132.893,60.4892 129.226,60.8226 125.5,60.5C 125.433,59.0413 125.766,57.7079 126.5,56.5 Z"/></g>
<g><path style="opacity:1" fill="#37b6f0" d="M 11.5,71.5 C 64.9974,72.499 118.664,72.8323 172.5,72.5C 118.665,73.8313 64.6651,73.8313 10.5,72.5C 10.6236,71.8933 10.9569,71.56 11.5,71.5 Z"/></g>
<g><path style="opacity:0.723" fill="#000000" d="M 23.5,99.5 C 20.5,99.5 17.5,99.5 14.5,99.5C 14.2739,96.7508 14.6072,94.0841 15.5,91.5C 13.9547,90.5481 12.288,90.2148 10.5,90.5C 10.7658,88.6526 10.4325,87.986 9.5,88.5C 8.24792,90.7354 7.74792,93.0687 8,95.5C 9.40072,93.8078 11.2341,93.1412 13.5,93.5C 13.385,95.9468 12.385,97.9468 10.5,99.5C 7.83333,99.5 5.16667,99.5 2.5,99.5C 1.70531,94.9955 2.53864,90.6621 5,86.5C 7.91716,84.6067 11.0838,84.1067 14.5,85C 15.2266,86.3988 15.7266,87.8988 16,89.5C 18.7081,84.5658 22.7081,83.2325 28,85.5C 28.0088,90.6406 26.5088,95.3073 23.5,99.5 Z M 22.5,88.5 C 22.1743,91.3113 21.3409,93.978 20,96.5C 19.7357,93.4609 20.5691,90.7942 22.5,88.5 Z"/></g>
<g><path style="opacity:0.703" fill="#000000" d="M 66.5,99.5 C 63.1667,99.5 59.8333,99.5 56.5,99.5C 55.542,95.4932 56.2087,91.6599 58.5,88C 56.8659,87.5065 55.1992,87.3398 53.5,87.5C 54.1667,89.5 54.8333,91.5 55.5,93.5C 54.1667,93.5 52.8333,93.5 51.5,93.5C 51.5,94.5 51.5,95.5 51.5,96.5C 52.5,96.5 53.5,96.5 54.5,96.5C 54.5,97.5 54.5,98.5 54.5,99.5C 45.1667,99.5 35.8333,99.5 26.5,99.5C 27.47,94.4233 29.1366,89.59 31.5,85C 33.1667,84.3333 34.8333,84.3333 36.5,85C 35.0733,88.4442 33.74,91.9442 32.5,95.5C 33.8333,96.8333 35.1667,96.8333 36.5,95.5C 37.7653,92.2043 38.9319,88.871 40,85.5C 41.8138,84.2404 43.6471,84.2404 45.5,85.5C 44.26,89.0558 42.9267,92.5558 41.5,96C 43.1124,96.7203 44.6124,96.5536 46,95.5C 47.0681,92.129 48.2347,88.7957 49.5,85.5C 51,85.1667 52.5,84.8333 54,84.5C 55.9806,84.6292 57.6472,85.2958 59,86.5C 61.9172,84.6067 65.0838,84.1067 68.5,85C 69.4061,86.6995 69.7394,88.5328 69.5,90.5C 67.8333,90.5 66.1667,90.5 64.5,90.5C 64.3879,86.6607 63.7213,86.6607 62.5,90.5C 64.5,91.1667 66.5,91.8333 68.5,92.5C 67.4229,94.7294 66.7563,97.0628 66.5,99.5 Z M 61.5,94.5 C 62.7733,95.0768 62.7733,95.7435 61.5,96.5C 60.537,96.0302 60.537,95.3635 61.5,94.5 Z"/></g>
<g><path style="opacity:0.727" fill="#000000" d="M 77.5,99.5 C 74.5,99.5 71.5,99.5 68.5,99.5C 69.8333,94.5 71.1667,89.5 72.5,84.5C 75.5,84.5 78.5,84.5 81.5,84.5C 81.5,85.5 81.5,86.5 81.5,87.5C 79.8333,87.5 78.1667,87.5 76.5,87.5C 76.5,88.5 76.5,89.5 76.5,90.5C 77.552,90.3505 78.552,90.5172 79.5,91C 78.3826,92.8921 76.7159,93.7254 74.5,93.5C 74.5,94.5 74.5,95.5 74.5,96.5C 75.5,96.5 76.5,96.5 77.5,96.5C 77.5,97.5 77.5,98.5 77.5,99.5 Z"/></g>
<g><path style="opacity:0.727" fill="#000000" d="M 116.5,99.5 C 114.833,99.5 113.167,99.5 111.5,99.5C 111.869,97.5588 112.536,95.7255 113.5,94C 113.167,93.8333 112.833,93.6667 112.5,93.5C 111.117,95.3198 110.117,97.3198 109.5,99.5C 104.833,99.5 100.167,99.5 95.5,99.5C 95.6567,98.1266 95.49,96.7932 95,95.5C 94.3103,97.3502 93.1436,98.6836 91.5,99.5C 88.5,99.5 85.5,99.5 82.5,99.5C 83.47,94.4233 85.1366,89.59 87.5,85C 90.1667,84.3333 92.8333,84.3333 95.5,85C 96.9675,86.0975 97.8008,87.5975 98,89.5C 98.2327,85.7703 100.233,84.1037 104,84.5C 105.981,84.6292 107.647,85.2958 109,86.5C 110.401,84.8078 112.234,84.1412 114.5,84.5C 113.139,92.2466 113.806,92.4132 116.5,85C 118.259,84.2025 119.926,84.3691 121.5,85.5C 119.826,90.1902 118.159,94.8568 116.5,99.5 Z M 91.5,87.5 C 92.0431,87.56 92.3764,87.8933 92.5,88.5C 91.6168,91.3252 90.4502,93.9919 89,96.5C 89.3005,93.421 90.1339,90.421 91.5,87.5 Z M 103.5,87.5 C 105.288,87.2148 106.955,87.5481 108.5,88.5C 107.235,91.7957 106.068,95.129 105,98.5C 104.29,97.0267 103.124,96.3601 101.5,96.5C 101.5,95.5 101.5,94.5 101.5,93.5C 102.833,93.5 104.167,93.5 105.5,93.5C 104.833,91.5 104.167,89.5 103.5,87.5 Z"/></g>
<g><path style="opacity:0.732" fill="#000000" d="M 157.5,90.5 C 156.596,91.209 156.263,92.209 156.5,93.5C 155.623,95.7278 154.29,97.7278 152.5,99.5C 147.5,99.5 142.5,99.5 137.5,99.5C 136.911,95.7035 135.911,95.7035 134.5,99.5C 131.5,99.5 128.5,99.5 125.5,99.5C 125.439,92.9788 124.772,92.9788 123.5,99.5C 121.833,99.5 120.167,99.5 118.5,99.5C 119.833,94.5 121.167,89.5 122.5,84.5C 126.106,84.2108 129.606,84.5442 133,85.5C 132.804,89.314 132.138,92.9807 131,96.5C 133.167,92.8333 135.333,89.1667 137.5,85.5C 139.396,84.5344 141.396,84.2011 143.5,84.5C 142.903,88.8316 142.737,93.1649 143,97.5C 144.308,93.2405 145.808,89.0738 147.5,85C 150.5,84.3333 153.5,84.3333 156.5,85C 157.406,86.6995 157.739,88.5328 157.5,90.5 Z M 127.5,87.5 C 128.776,88.3864 128.776,89.3864 127.5,90.5C 126.438,89.5754 126.438,88.5754 127.5,87.5 Z"/></g>
<g><path style="opacity:0.733" fill="#000000" d="M 165.5,99.5 C 162.5,99.5 159.5,99.5 156.5,99.5C 156.5,97.5 156.5,95.5 156.5,93.5C 157.404,92.791 157.737,91.791 157.5,90.5C 158.738,88.7857 159.405,86.7857 159.5,84.5C 161.167,84.5 162.833,84.5 164.5,84.5C 163.329,88.4918 162.495,92.4918 162,96.5C 163.793,92.954 165.293,89.2873 166.5,85.5C 168.167,84.1667 169.833,84.1667 171.5,85.5C 170.069,90.4764 168.069,95.143 165.5,99.5 Z"/></g>
<g><path style="opacity:0.728" fill="#000000" d="M 180.5,99.5 C 179.167,99.5 177.833,99.5 176.5,99.5C 175.5,94.1667 174.5,94.1667 173.5,99.5C 172.167,99.5 170.833,99.5 169.5,99.5C 170.833,94.5 172.167,89.5 173.5,84.5C 176.48,84.2411 178.313,85.5744 179,88.5C 179.307,85.1238 181.14,83.7904 184.5,84.5C 183.167,89.5 181.833,94.5 180.5,99.5 Z"/></g>
</svg>
