<?xml version="1.0" encoding="utf-8"?>
<!-- Generator: Adobe Illustrator 25.0.1, SVG Export Plug-In . SVG Version: 6.00 Build 0)  -->
<svg version="1.1" id="Layer_1" xmlns="http://www.w3.org/2000/svg" xmlns:xlink="http://www.w3.org/1999/xlink" x="0px" y="0px"
	 viewBox="0 0 109.2 93.8" style="enable-background:new 0 0 109.2 93.8;" xml:space="preserve">
<style type="text/css">
	.st0{fill:#FFFFFF;}
</style>
<rect x="0.7" y="36.3" class="st0" width="108.3" height="9.4"/>
<rect x="0.7" y="-0.1" class="st0" width="108.3" height="9.4"/>
<path class="st0" d="M0.7,71.1h2.5l8.3,15.6l8.3-15.6h2.5v22.3h-2.5V76.6l-8.3,15.6L3.3,76.6v16.9H0.7V71.1z"/>
<path class="st0" d="M36.2,73.5v7.4h12.1v2.4H36.2v7.8h13.5v2.4h-16V71.1h16v2.4H36.2z"/>
<path class="st0" d="M60,71.1h2.5l13.9,18.2V71.1H79v22.4h-2.6L62.5,75.3v18.2H60V71.1z"/>
<path class="st0" d="M90.3,84.2V71.1h2.5v13.1c0,4.3,2.8,7.3,6.8,7.3s6.8-3.1,6.8-7.3V71.1h2.5v13.1c0,5.7-3.9,9.7-9.3,9.7
	S90.3,89.8,90.3,84.2z"/>
</svg>
